# xmcd CD database file
#
# Track frame offsets:
#	150
#	2792
#	15262
#	51615
#	84195
#	108280
#	112695
#	143502
#	173642
#	197177
#
# Disc length: 2663 seconds
#
# Revision: 0
# Processed by: cddbd v1.5.1PL0 Copyright (c) Steve Scherf et al.
# Submitted via: CDex 1.60beta1
#
DISCID=6d0a650a
DTITLE=Kimara - One Reality
DYEAR=1900
DGENRE=Blues
TTITLE0=The Sky
TTITLE1=Fred Astaire
TTITLE2=One Reality
TTITLE3=East Bay Fools
TTITLE4=You'd Be Surprised
TTITLE5=Easy Architecture
TTITLE6=The Bicycle
TTITLE7=Heavy Behaviour
TTITLE8=August Town
TTITLE9=The Sky
EXTD=
EXTT0=
EXTT1=
EXTT2=
EXTT3=
EXTT4=
EXTT5=
EXTT6=
EXTT7=
EXTT8=
EXTT9=
PLAYORDER=
